<?xml version="1.0" encoding="UTF-8"?>
<svg xmlns:cc="http://creativecommons.org/ns#" xmlns:dc="http://purl.org/dc/elements/1.1/"
     xmlns:rdf="http://www.w3.org/1999/02/22-rdf-syntax-ns#" width="256mm" height="256mm"
     version="1.1" viewBox="0 0 256 256"
     xmlns="http://www.w3.org/2000/svg">
 <defs>
  <radialGradient id="radialGradient1131" cx="301.34" cy="15.425" r="106.6"
                  gradientTransform="matrix(.010291 -1.2722 .86666 .0061616 284.87 384.58)"
                  gradientUnits="userSpaceOnUse">
   <stop stop-color="#ffe600" offset="0"/>
   <stop stop-color="#ffec7f" offset=".60055"/>
   <stop stop-color="#fd6802" offset="1"/>
  </radialGradient>
 </defs>
 <metadata>
  <rdf:RDF>
   <cc:Work rdf:about="">
    <dc:format>image/svg+xml</dc:format>
    <dc:type rdf:resource="http://purl.org/dc/dcmitype/StillImage"/>
    <dc:title/>
   </cc:Work>
  </rdf:RDF>
 </metadata>
 <g transform="translate(1004.3 409.53)">
  <path d="m-1004.3-409.53h256v256h-256z" fill="#69c"/>
  <path transform="matrix(1.2067 0 0 1.3568 -1240 -162)" d="m301.34 1.2943-106.08-183.73 212.15-1e-5z"
        fill="url(#radialGradient1131)"/>
  <g transform="matrix(1.5279 0 0 -2.2807 -459.15 -645.55)" fill="#fff">
   <path d="m-251.27-147.67 4.682 0.244c-0.178-0.627-0.187-1.097-0.031-1.415 0.252-0.508 0.822-0.758 1.712-0.758 0.664 0 1.238 0.126 1.726 0.381 0.501 0.262 0.845 0.568 1.028 0.917 0.175 0.336 0.157 0.64-0.057 0.911-0.217 0.274-0.917 0.534-2.105 0.781-1.964 0.419-3.272 0.984-3.916 1.704-0.667 0.737-0.786 1.702-0.333 2.916 0.308 0.824 0.863 1.619 1.674 2.383 0.841 0.79 1.898 1.42 3.167 1.883 1.299 0.477 2.911 0.718 4.823 0.718 2.346 0 3.896-0.435 4.635-1.289 0.735-0.826 0.694-2.103-0.079-3.781l-5.098-0.268c0.235 0.712 0.224 1.24-0.04 1.575-0.258 0.337-0.771 0.507-1.535 0.507-0.629 0-1.161-0.128-1.596-0.384-0.427-0.246-0.72-0.546-0.877-0.898-0.115-0.254-0.089-0.481 0.076-0.682 0.153-0.206 0.649-0.397 1.485-0.573 2.044-0.446 3.418-0.893 4.135-1.34 0.718-0.434 1.103-0.966 1.161-1.592 0.064-0.614-0.126-1.286-0.563-2.011-0.5-0.831-1.217-1.577-2.145-2.243-0.907-0.651-1.914-1.136-3.027-1.463-1.097-0.319-2.341-0.477-3.74-0.477-2.457 0-4.004 0.375-4.657 1.138-0.67 0.786-0.847 1.816-0.505 3.116zm-13.712 10.353h9.388c2.044 0 3.43-0.48 4.142-1.42 0.701-0.916 0.772-2.177 0.246-3.744-0.515-1.535-1.395-2.685-2.634-3.488-1.199-0.782-2.766-1.166-4.722-1.166h-2.656l-0.893-4.594h-4.499zm4.317-6.971h1.246c0.979 0 1.704 0.15 2.176 0.455 0.479 0.313 0.784 0.717 0.911 1.214 0.126 0.491 0.055 0.912-0.216 1.262-0.274 0.354-0.914 0.533-1.916 0.533h-1.527zm-14.003 6.971h5.659l-0.795-14.412h-4.489zm-21.468 0h5.647l1.475-5.827h5.655l-0.959 5.827h5.673l1.197-14.412h-4.499l-0.83 5.046h-5.341l1.277-5.046h-4.48zm-13.1-10.353 4.445 0.244c0.435-0.627 0.884-1.097 1.351-1.415 0.749-0.508 1.563-0.758 2.453-0.758 0.664 0 1.115 0.126 1.354 0.381 0.245 0.262 0.29 0.568 0.131 0.917-0.153 0.336-0.468 0.64-0.947 0.911-0.484 0.274-1.438 0.534-2.868 0.781-2.373 0.419-4.234 0.984-5.581 1.704-1.387 0.737-2.449 1.702-3.182 2.916-0.496 0.824-0.718 1.619-0.653 2.383 0.069 0.79 0.509 1.42 1.327 1.883 0.833 0.477 2.209 0.718 4.121 0.718 2.346 0 4.321-0.435 5.895-1.289 1.541-0.826 2.748-2.103 3.615-3.781l-4.837-0.268c-0.46 0.712-0.987 1.24-1.578 1.575-0.588 0.337-1.267 0.507-2.031 0.507-0.629 0-1.036-0.128-1.22-0.384-0.187-0.246-0.187-0.546-1e-3 -0.898 0.135-0.254 0.383-0.481 0.743-0.682 0.354-0.206 1.037-0.397 2.045-0.573 2.48-0.446 4.29-0.893 5.444-1.34 1.142-0.434 2.047-0.966 2.717-1.592 0.664-0.614 1.129-1.286 1.402-2.011 0.311-0.831 0.323-1.577 0.045-2.243-0.271-0.651-0.804-1.136-1.597-1.463-0.786-0.319-1.875-0.477-3.274-0.477-2.457 0-4.37 0.375-5.769 1.138-1.437 0.786-2.62 1.816-3.55 3.116zm91.112 41.037h21.799l-5.681-7.451h-12.634l-3.049-4.866h11.106l-4.174-5.545h-10.406l-2.966-4.734h10.881l-3.686-4.809h-16.134zm-24.51 0h8.134l-8.463-22.145h9.894l-2.675-5.26h-15.142zm-28.407 0h24.726l-2.253-8.519h-7.591l-3.433-18.886h-5.914l1.903 18.886h-7.592zm-26.557 0h24.726l1e-3 -8.519h-7.592l1.565-18.886h-5.913l-3.095 18.886h-7.592zm-0.203-23.961h-7.054l0.516-3.444h-6.044l-4.202 27.405h8.871l16.164-27.405h-6.187zm-3.029 5.036-6.093 10.02 1.387-10.02zm-48.949 18.925h15.227c2.538 0 4.991-0.892 7.299-2.629 2.24-1.678 3.965-3.677 5.186-5.954 0.979-1.827 1.361-3.337 1.179-4.558-0.118-0.795-0.582-1.414-1.387-1.862 1.871-0.469 3.481-1.265 4.817-2.37 1.305-1.064 2.354-2.368 3.151-3.888 0.626-1.195 0.931-2.24 0.927-3.144-3e-3 -0.883-0.277-1.568-0.816-2.064-0.329-0.305-0.957-0.526-1.883-0.663-1.225-0.182-2.053-0.273-2.488-0.273h-10.208zm17.03-12.888h3.083c1.106 0 1.725 0.236 1.859 0.709 0.137 0.493-0.081 1.208-0.665 2.156-0.553 0.898-1.222 1.612-2.008 2.133-0.783 0.527-1.751 0.793-2.897 0.793h-3.337zm6.826-9.969h3.203c1.082 0 1.714 0.21 1.899 0.634 0.18 0.439 0.046 1.032-0.41 1.785-0.431 0.713-1.015 1.293-1.75 1.733-0.74 0.457-1.698 0.687-2.867 0.687h-3.389zm33.029-2.136c-0.124 0-0.191-0.131-0.148-0.29 0.042-0.159 0.179-0.29 0.302-0.29 0.124 0 0.192 0.131 0.15 0.29s-0.18 0.29-0.304 0.29zm0.069-0.259c0.015 0 0.029-0.012 0.034-0.031s-3e-3 -0.033-0.017-0.033c-0.015 0-0.028 0.014-0.033 0.033s2e-3 0.031 0.016 0.031zm0.135-0.032c0.023-0.088-0.014-0.16-0.083-0.16s-0.144 0.072-0.168 0.16c-0.024 0.089 0.013 0.161 0.082 0.161 0.07 0 0.145-0.072 0.169-0.161z"
         fill="#fff"/>
  </g>
  <g transform="matrix(.99582 0 0 .99871 -2.6069 -.24194)">
   <g>
    <path d="m-830.98-163.46 48.976-0.66115-48.976-35.127z" fill="#2c0d0d"/>
    <path d="m-927.05-212.28h96.67v58.799h-96.67z" fill="#fff"/>
    <path d="m-854.89-208.32c-4.4e-4 -4.9723-0.0187-9.6762-0.0947-14.137-0.0384-2.2538-0.0914-4.4474-0.16385-6.5867-0.0724-2.1393-0.16428-4.2242-0.28057-6.2597s-0.25709-4.022-0.42712-5.9647c-0.17004-1.9426-0.36944-3.8414-0.60308-5.7019-0.23365-1.8605-0.50131-3.6825-0.80843-5.4717s-0.65357-3.5452-1.044-5.2737c-0.39047-1.7285-0.82494-3.4296-1.3086-5.1083-0.48368-1.6787-1.0167-3.3352-1.6034-4.9749-0.58677-1.6396-1.2276-3.2623-1.9273-4.8736-0.69972-1.6114-1.4584-3.2115-2.2809-4.8054-0.82253-1.5939-1.7091-3.1818-2.6644-4.769-0.95523-1.5872-1.979-3.1737-3.0768-4.7649s-2.2693-3.187-3.5195-4.793-2.5791-3.2224-3.9916-4.8541c-1.4125 1.6317-2.7414 3.248-3.9916 4.8541-1.2502 1.606-2.4217 3.2018-3.5195 4.793s-2.122 3.1777-3.0772 4.7649c-0.95522 1.5872-1.8414 3.1751-2.6639 4.769-0.82254 1.5939-1.5812 3.194-2.2809 4.8054s-1.3405 3.234-1.9273 4.8736c-0.58677 1.6396-1.1198 3.2962-1.6035 4.9749-0.48368 1.6787-0.91814 3.3798-1.3086 5.1083-0.39047 1.7285-0.73692 3.4846-1.044 5.2737-0.30711 1.7891-0.57521 3.6112-0.80886 5.4717-0.23363 1.8605-0.43262 3.7592-0.60263 5.7019-0.17004 1.9426-0.31084 3.9291-0.42713 5.9647-0.1163 2.0356-0.20816 4.1205-0.28058 6.2597-0.0724 2.1393-0.12544 4.333-0.16384 6.5867-0.0759 4.4542-0.0938 9.1519-0.0942 14.116 16.021 1.6639 32.183 1.6124 47.588 0.0213z"
          fill="#cc6e33"/>
   </g>
   <path d="m-878.53-296.54c-0.0529-0.041-0.10584-0.0819-0.15887-0.12293-5e-3 4e-3 -0.0104 8e-3 -0.0156 0.0121"
         fill="none"/>
   <path d="m-878.52-296.47c1.3517 1.5674 2.6262 3.121 3.8281 4.6649 1.2502 1.606 2.4217 3.2018 3.5195 4.793 1.0978 1.5912 2.1216 3.1777 3.0768 4.7649 0.95522 1.5872 1.8418 3.1751 2.6644 4.769 0.82253 1.5939 1.5812 3.194 2.2809 4.8054s1.3405 3.234 1.9273 4.8736c0.58676 1.6396 1.1198 3.2962 1.6034 4.9749 0.48369 1.6787 0.91815 3.3798 1.3086 5.1083 0.39047 1.7285 0.73692 3.4846 1.044 5.2737s0.57479 3.6112 0.80843 5.4717c0.23364 1.8605 0.43305 3.7592 0.60308 5.7019 0.17003 1.9426 0.31083 3.9291 0.42713 5.9647 0.11628 2.0356 0.20815 4.1205 0.28057 6.2597 0.0724 2.1393 0.12544 4.333 0.16385 6.5867 0.076 4.4609 0.0943 9.1648 0.0947 14.137 4.5138-0.46624 8.9627-1.0634 13.324-1.7882-0.0198-3.0325-0.0176-6.1613-0.0899-9.0017-0.06-2.3557-0.14279-4.6488-0.25593-6.8849s-0.25668-4.4148-0.43837-6.5424-0.4014-4.2039-0.66706-6.2344-0.5774-4.0152-0.94245-5.9599c-0.36504-1.9446-0.78337-3.8493-1.2632-5.7194s-1.0211-3.7054-1.6311-5.5121c-0.30504-0.90335-0.62748-1.7995-0.96796-2.6892-0.34047-0.88962-0.69904-1.7727-1.0769-2.65s-0.77474-1.749-1.1919-2.6154c-0.41716-0.8664-0.85457-1.7276-1.3129-2.5845-0.45838-0.85691-0.93765-1.7093-1.4392-2.5581-0.50153-0.84881-1.0253-1.694-1.5719-2.5362-0.54661-0.84213-1.1162-1.6811-1.7098-2.518-0.59363-0.83685-1.2112-1.6716-1.8538-2.5046-0.64256-0.83299-1.3104-1.6644-2.0038-2.495-0.69342-0.83053-1.4128-1.66-2.159-2.4895-0.74621-0.82947-1.5193-1.6586-2.3202-2.4885-0.80093-0.82982-1.6295-1.6603-2.4871-2.4919-0.85757-0.8316-1.7439-1.6643-2.66-2.4991s-1.8624-1.6718-2.839-2.5111-1.9837-1.6812-3.0228-2.5265c-0.98913-0.8047-2.0071-1.6125-3.0545-2.4239"
         fill="#ddc895"/>
   <path d="m-878.7-296.64c5e-3 -6e-3 0.0108-0.0124 0.0161-0.0186 0.0546 0.0631 0.1091 0.12615 0.16346 0.18919"
         fill="none"/>
   <g>
    <path d="m-878.7-296.65c-1.0979 0.84867-2.1636 1.6934-3.1978 2.5347-1.0391 0.84533-2.0465 1.6872-3.0232 2.5265s-1.9224 1.6763-2.8386 2.5111-1.8025 1.6675-2.66 2.4991c-0.85758 0.83159-1.6866 1.6621-2.4875 2.4919-0.80094 0.82983-1.574 1.659-2.3202 2.4885-0.74621 0.82948-1.4656 1.659-2.159 2.4895-0.69342 0.83053-1.3608 1.662-2.0033 2.495-0.64257 0.83298-1.2602 1.6677-1.8538 2.5046-0.59363 0.83685-1.1632 1.6758-1.7098 2.518-0.54661 0.84213-1.0704 1.6873-1.5719 2.5362-0.50153 0.84882-0.98078 1.7012-1.4392 2.5581-0.45838 0.8569-0.89578 1.7181-1.313 2.5845-0.41715 0.86641-0.81404 1.7381-1.1919 2.6154-0.37785 0.87731-0.73685 1.7604-1.0773 2.65-0.34047 0.88963-0.66248 1.7858-0.96752 2.6892-0.61007 1.8067-1.1513 3.6421-1.6311 5.5121-0.47986 1.87-0.89862 3.7747-1.2637 5.7194-0.36505 1.9446-0.67637 3.9294-0.94203 5.9599-0.26565 2.0305-0.48536 4.1067-0.66706 6.2344-0.18168 2.1276-0.32523 4.3064-0.43836 6.5424-0.11315 2.236-0.19593 4.5292-0.25594 6.8849-0.0722 2.8344-0.07 5.9569-0.0899 8.9825 4.4171 0.73381 8.8653 1.3231 13.324 1.7862 0-4.964 0.0184-9.6617 0.0942-14.116 0.0384-2.2538 0.0914-4.4474 0.16384-6.5867 0.0724-2.1393 0.16428-4.2242 0.28058-6.2597 0.11629-2.0356 0.25709-4.022 0.42713-5.9647 0.17001-1.9426 0.369-3.8414 0.60263-5.7019 0.23365-1.8605 0.50175-3.6825 0.80886-5.4717 0.30713-1.7891 0.65358-3.5452 1.044-5.2737 0.39047-1.7285 0.82493-3.4296 1.3086-5.1083 0.48369-1.6787 1.0167-3.3352 1.6035-4.9749s1.2275-3.2623 1.9273-4.8736 1.4584-3.2115 2.2809-4.8054c0.82254-1.5939 1.7087-3.1818 2.6639-4.769 0.95522-1.5872 1.9794-3.1737 3.0772-4.7649 1.0978-1.5912 2.2693-3.187 3.5195-4.793 1.2454-1.5999 2.569-3.2101 3.9754-4.8354"
          fill="#963"/>
    <path d="m-878.68-296.66-8e-3 -8e-3 -8e-3 8e-3c3e-3 -2e-3 5e-3 -4e-3 8e-3 -6e-3 3e-3 2e-3 5e-3 4e-3 8e-3 6e-3z"
          fill="#ffab00"/>
    <path d="m-878.71-296.64c6e-3 -5e-3 0.0125-0.01 0.0187-0.0145l8e-3 -8e-3 8e-3 8e-3c1.1006 0.85064 2.1691 1.6973 3.2056 2.5406 1.0391 0.84533 2.0461 1.6872 3.0227 2.5265s1.9229 1.6763 2.839 2.5111c0.91614 0.83476 1.8024 1.6675 2.66 2.4991 0.85758 0.83159 1.6862 1.6621 2.4871 2.4919 0.80094 0.82983 1.574 1.659 2.3202 2.4885 0.74621 0.82948 1.4656 1.659 2.159 2.4895 0.69342 0.83053 1.3612 1.662 2.0038 2.495 0.64257 0.83298 1.2602 1.6677 1.8538 2.5046 0.59363 0.83685 1.1632 1.6758 1.7098 2.518 0.54661 0.84213 1.0704 1.6873 1.5719 2.5362 0.50154 0.84882 0.9808 1.7012 1.4392 2.5581 0.45838 0.8569 0.89579 1.7181 1.3129 2.5845 0.41715 0.86641 0.81404 1.7381 1.1919 2.6154s0.73642 1.7604 1.0769 2.65c0.34047 0.88963 0.66292 1.7858 0.96795 2.6892 0.61006 1.8067 1.1513 3.6421 1.6311 5.5121 0.47985 1.87 0.89818 3.7747 1.2632 5.7194 0.36504 1.9446 0.67678 3.9294 0.94244 5.9599s0.48537 4.1067 0.66706 6.2344c0.1817 2.1276 0.32523 4.3064 0.43837 6.5424s0.19592 4.5292 0.25593 6.8849c0.0724 2.8405 0.0701 5.9692 0.0899 9.0017 3.8001-0.63159 7.5347-1.3581 11.186-2.1786 0-38.376-2.426-59.489-48.304-84.386-9e-3 5e-3 -0.0178 0.01-0.0267 0.0145"
          fill="#fa8208"/>
   </g>
   <path d="m-878.86-296.53c0.0478-0.0371 0.0957-0.0741 0.1437-0.11121" fill="none"/>
   <path d="m-878.86-296.58c-45.713 24.857-48.133 45.965-48.133 84.293 3.6977 0.82517 7.4323 1.5358 11.186 2.1594 0.0199-3.0256 0.0177-6.1481 0.0899-8.9825 0.06-2.3557 0.14279-4.6488 0.25594-6.8849 0.11313-2.236 0.25668-4.4148 0.43836-6.5424 0.1817-2.1276 0.40141-4.2039 0.66706-6.2344 0.26566-2.0305 0.57698-4.0152 0.94203-5.9599 0.36504-1.9446 0.7838-3.8493 1.2637-5.7194 0.47983-1.87 1.021-3.7054 1.6311-5.5121 0.30504-0.90335 0.62705-1.7995 0.96752-2.6892 0.34048-0.88962 0.69948-1.7727 1.0773-2.65 0.37784-0.87731 0.77473-1.749 1.1919-2.6154 0.41717-0.8664 0.85457-1.7276 1.313-2.5845 0.45839-0.85691 0.93764-1.7093 1.4392-2.5581 0.50154-0.84881 1.0253-1.694 1.5719-2.5362 0.54662-0.84213 1.1162-1.6811 1.7098-2.518 0.59362-0.83685 1.2112-1.6716 1.8538-2.5046 0.64256-0.83299 1.3099-1.6644 2.0033-2.495 0.69343-0.83053 1.4128-1.66 2.159-2.4895 0.74622-0.82947 1.5193-1.6586 2.3202-2.4885 0.80093-0.82982 1.63-1.6603 2.4875-2.4919 0.85757-0.8316 1.7439-1.6643 2.66-2.4991s1.8619-1.6718 2.8386-2.5111 1.9841-1.6812 3.0232-2.5265c0.9855-0.80175 1.9998-1.6066 3.0432-2.4149"
         fill="#37371e"/>
   <path d="m-878.71-296.66c-0.048 0.026-0.0959 0.0521-0.14376 0.0781" fill="none"/>
   <g shape-rendering="auto">
    <path d="m-896.21-171.67h34.967v-17.418h-34.967z" color="#000000" color-rendering="auto" dominant-baseline="auto"
          image-rendering="auto" solid-color="#000000" stop-color="#000000"
          style="font-feature-settings:normal;font-variant-alternates:normal;font-variant-caps:normal;font-variant-east-asian:normal;font-variant-ligatures:normal;font-variant-numeric:normal;font-variant-position:normal;font-variation-settings:normal;inline-size:0;isolation:auto;mix-blend-mode:normal;shape-margin:0;shape-padding:0;text-decoration-color:#000000;text-decoration-line:none;text-decoration-style:solid;text-indent:0;text-orientation:mixed;text-transform:none;white-space:normal"/>
    <path d="m-830.38-212.28 0.16934 19.839-29.088 3.1978 0.0726-18.697c10.187-0.92927 19.382-2.0526 28.846-4.3402z"
          color="#000000" color-rendering="auto" dominant-baseline="auto" image-rendering="auto" solid-color="#000000"
          stop-color="#000000"
          style="font-feature-settings:normal;font-variant-alternates:normal;font-variant-caps:normal;font-variant-east-asian:normal;font-variant-ligatures:normal;font-variant-numeric:normal;font-variant-position:normal;font-variation-settings:normal;inline-size:0;isolation:auto;mix-blend-mode:normal;shape-margin:0;shape-padding:0;text-decoration-color:#000000;text-decoration-line:none;text-decoration-style:solid;text-indent:0;text-orientation:mixed;text-transform:none;white-space:normal"/>
    <path d="m-927.05-212.28-0.094 19.479 29.088 3.1978 0.17448-18.339c-9.4509-0.76443-19.392-2.2639-29.169-4.3377z"
          color="#000000" color-rendering="auto" dominant-baseline="auto" image-rendering="auto" solid-color="#000000"
          stop-color="#000000"
          style="font-feature-settings:normal;font-variant-alternates:normal;font-variant-caps:normal;font-variant-east-asian:normal;font-variant-ligatures:normal;font-variant-numeric:normal;font-variant-position:normal;font-variation-settings:normal;inline-size:0;isolation:auto;mix-blend-mode:normal;shape-margin:0;shape-padding:0;text-decoration-color:#000000;text-decoration-line:none;text-decoration-style:solid;text-indent:0;text-orientation:mixed;text-transform:none;white-space:normal"/>
    <path d="m-927.17-174.49v17.418l29.088 3.1978v-17.418z" color="#000000" color-rendering="auto"
          dominant-baseline="auto" image-rendering="auto" solid-color="#000000" stop-color="#000000"
          style="font-feature-settings:normal;font-variant-alternates:normal;font-variant-caps:normal;font-variant-east-asian:normal;font-variant-ligatures:normal;font-variant-numeric:normal;font-variant-position:normal;font-variation-settings:normal;inline-size:0;isolation:auto;mix-blend-mode:normal;shape-margin:0;shape-padding:0;text-decoration-color:#000000;text-decoration-line:none;text-decoration-style:solid;text-indent:0;text-orientation:mixed;text-transform:none;white-space:normal"/>
    <path d="m-830.14-174.11v17.418l-29.088 3.1978v-17.418z" color="#000000" color-rendering="auto"
          dominant-baseline="auto" image-rendering="auto" solid-color="#000000" stop-color="#000000"
          style="font-feature-settings:normal;font-variant-alternates:normal;font-variant-caps:normal;font-variant-east-asian:normal;font-variant-ligatures:normal;font-variant-numeric:normal;font-variant-position:normal;font-variation-settings:normal;inline-size:0;isolation:auto;mix-blend-mode:normal;shape-margin:0;shape-padding:0;text-decoration-color:#000000;text-decoration-line:none;text-decoration-style:solid;text-indent:0;text-orientation:mixed;text-transform:none;white-space:normal"/>
   </g>
   <g transform="translate(55.998 6.3512)">
    <path d="m-976.18-169.09s10.369-16.987 9.6263-26.038c-0.41788-5.0942-7.7624-13.924-7.7624-13.924l-52.82 39.249z"
          fill="#fff"/>
    <path d="m-978.84-168.82s10.369-16.396 9.6263-25.132c-0.41788-4.9169-7.7624-13.44-7.7624-13.44l-52.82 37.884z"
          fill="#2c0d0d"/>
   </g>
  </g>
 </g>
</svg>
